<svg version="1.1" id="Layer_1" xmlns="http://www.w3.org/2000/svg" xmlns:xlink="http://www.w3.org/1999/xlink" x="0px" y="0px"
	 width="100%" viewBox="0 0 512 512" enable-background="new 0 0 512 512" xml:space="preserve">
<path fill="#FFFFFF" opacity="1.000000" stroke="none" 
	d="
M343.000000,513.000000 
	C228.694443,513.000000 114.888878,513.000000 1.041656,513.000000 
	C1.041656,342.402740 1.041656,171.805481 1.041656,1.104111 
	C171.555573,1.104111 342.111206,1.104111 512.833435,1.104111 
	C512.833435,171.666534 512.833435,342.333252 512.833435,513.000000 
	C456.472137,513.000000 399.986053,513.000000 343.000000,513.000000 
M410.458313,150.057266 
	C381.672028,133.448456 352.885742,116.839653 323.134399,99.674034 
	C323.134399,110.005051 323.134399,119.355415 323.134399,129.933716 
	C308.815796,129.933716 295.176208,129.405151 281.592896,130.054276 
	C259.750763,131.098099 239.066635,137.059387 219.260071,146.328949 
	C198.877060,155.868256 181.378311,169.808884 163.084488,182.541779 
	C142.960892,196.548279 122.813614,210.531097 98.670319,216.929153 
	C87.319717,219.937119 75.838745,222.453079 64.425415,225.189957 
	C64.425415,246.474442 64.425415,268.033539 64.425415,289.400391 
	C87.334625,293.729980 109.640327,298.628754 129.361145,310.882904 
	C143.489059,319.661713 157.340149,328.923096 170.954025,338.482910 
	C188.957718,351.125275 206.807205,363.883850 227.477402,372.058319 
	C252.020599,381.764526 277.561493,385.160461 303.750061,384.932800 
	C309.354797,384.884064 314.960327,384.925659 321.357971,384.925659 
	C321.357971,394.574921 321.357971,403.734802 321.357971,413.910828 
	C358.969147,392.188477 395.521759,371.077515 432.969788,349.449402 
	C395.480042,327.799072 358.873169,306.658600 321.090454,284.839111 
	C321.090454,296.990417 321.090454,307.685913 321.090454,319.006592 
	C309.420715,319.006592 298.455750,319.192780 287.499451,318.964783 
	C269.133270,318.582642 251.858322,313.786987 236.444290,303.836182 
	C220.931366,293.821533 206.016571,282.882965 190.784210,272.430084 
	C183.444305,267.393250 175.976898,262.542236 168.913910,257.838013 
	C188.303421,244.327576 207.582260,230.960373 226.788574,217.489716 
	C241.105774,207.448166 256.187225,198.528671 273.799988,196.764374 
	C289.791656,195.162430 305.997559,195.696686 322.109741,195.321472 
	C322.353485,195.315781 322.606903,195.726120 323.400146,196.415070 
	C323.400146,206.512070 323.400146,217.090958 323.400146,228.865173 
	C361.068054,207.127213 397.799652,185.929581 435.184998,164.354691 
	C426.604370,159.406616 418.839111,154.928726 410.458313,150.057266 
z"/>
<path fill="#95A4B8" opacity="1.000000" stroke="none" 
	d="
M410.766052,150.254044 
	C418.839111,154.928726 426.604370,159.406616 435.184998,164.354691 
	C397.799652,185.929581 361.068054,207.127213 323.400146,228.865173 
	C323.400146,217.090958 323.400146,206.512070 323.400146,196.415070 
	C322.606903,195.726120 322.353485,195.315781 322.109741,195.321472 
	C305.997559,195.696686 289.791656,195.162430 273.799988,196.764374 
	C256.187225,198.528671 241.105774,207.448166 226.788574,217.489716 
	C207.582260,230.960373 188.303421,244.327576 168.913910,257.838013 
	C175.976898,262.542236 183.444305,267.393250 190.784210,272.430084 
	C206.016571,282.882965 220.931366,293.821533 236.444290,303.836182 
	C251.858322,313.786987 269.133270,318.582642 287.499451,318.964783 
	C298.455750,319.192780 309.420715,319.006592 321.090454,319.006592 
	C321.090454,307.685913 321.090454,296.990417 321.090454,284.839111 
	C358.873169,306.658600 395.480042,327.799072 432.969788,349.449402 
	C395.521759,371.077515 358.969147,392.188477 321.357971,413.910828 
	C321.357971,403.734802 321.357971,394.574921 321.357971,384.925659 
	C314.960327,384.925659 309.354797,384.884064 303.750061,384.932800 
	C277.561493,385.160461 252.020599,381.764526 227.477402,372.058319 
	C206.807205,363.883850 188.957718,351.125275 170.954025,338.482910 
	C157.340149,328.923096 143.489059,319.661713 129.361145,310.882904 
	C109.640327,298.628754 87.334625,293.729980 64.425415,289.400391 
	C64.425415,268.033539 64.425415,246.474442 64.425415,225.189957 
	C75.838745,222.453079 87.319717,219.937119 98.670319,216.929153 
	C122.813614,210.531097 142.960892,196.548279 163.084488,182.541779 
	C181.378311,169.808884 198.877060,155.868256 219.260071,146.328949 
	C239.066635,137.059387 259.750763,131.098099 281.592896,130.054276 
	C295.176208,129.405151 308.815796,129.933716 323.134399,129.933716 
	C323.134399,119.355415 323.134399,110.005051 323.134399,99.674034 
	C352.885742,116.839653 381.672028,133.448456 410.766052,150.254044 
z"/>
</svg>